<svg width="512" height="512" viewBox="0 0 512 512" xmlns="http://www.w3.org/2000/svg" role="img" aria-label="Magic Agenda app icon">
  <defs>
    <linearGradient id="tile" x1="0" y1="0" x2="1" y2="1">
      <stop offset="0" stop-color="#7A4FE0"/>
      <stop offset="1" stop-color="#4A2A86"/>
    </linearGradient>
    <linearGradient id="spark" x1="0" y1="0" x2="1" y2="1">
      <stop offset="0" stop-color="#FFD46B"/>
      <stop offset="1" stop-color="#FFA920"/>
    </linearGradient>
    <filter id="soft" x="-40%" y="-40%" width="180%" height="180%">
      <feGaussianBlur stdDeviation="9"/>
    </filter>
  </defs>

  <!-- tile -->
  <rect x="16" y="16" width="480" height="480" rx="116" fill="url(#tile)"/>

  <!-- shadow (separate shape, blurred) -->
  <g transform="rotate(-8 256 268) translate(0 16)">
    <rect x="150" y="156" width="212" height="224" rx="26" fill="#1E0F45" fill-opacity="0.38" filter="url(#soft)"/>
  </g>

  <!-- post-it note, caught mid-drag (NO filter on this group) -->
  <g transform="rotate(-8 256 268)">
    <rect x="150" y="156" width="212" height="224" rx="26" fill="#FFFDF6"/>
    <rect x="180" y="206" width="120" height="18" rx="9" fill="#FFB020"/>
    <rect x="180" y="248" width="152" height="16" rx="8" fill="#D9D2EA"/>
    <rect x="180" y="286" width="120" height="16" rx="8" fill="#D9D2EA"/>
    <rect x="180" y="322" width="30" height="30" rx="8" fill="#EFE9FA"/>
    <path d="M187 337 l7 7 l11 -14" fill="none" stroke="#7A4FE0" stroke-width="5" stroke-linecap="round" stroke-linejoin="round"/>
    <rect x="222" y="330" width="96" height="15" rx="7.5" fill="#D9D2EA"/>
  </g>

  <!-- sparkles -->
  <path d="M372 120 Q372 168 420 168 Q372 168 372 216 Q372 168 324 168 Q372 168 372 120 Z" fill="url(#spark)"/>
  <path d="M330 92 Q330 110 348 110 Q330 110 330 128 Q330 110 312 110 Q330 110 330 92 Z" fill="#FFE39A"/>
</svg>
